<?xml version="1.0" encoding="UTF-8" standalone="no"?>
<!-- Created with Inkscape (http://www.inkscape.org/) -->

<svg
   version="1.1"
   id="svg132"
   width="800"
   height="800"
   viewBox="0 0 800 800"
   sodipodi:docname="queen.svg"
   inkscape:version="1.2.2 (732a01da63, 2022-12-09)"
   xmlns:inkscape="http://www.inkscape.org/namespaces/inkscape"
   xmlns:sodipodi="http://sodipodi.sourceforge.net/DTD/sodipodi-0.dtd"
   xmlns="http://www.w3.org/2000/svg"
   xmlns:svg="http://www.w3.org/2000/svg">
  <defs
     id="defs136" />
  <sodipodi:namedview
     id="namedview134"
     pagecolor="#ffffff"
     bordercolor="#000000"
     borderopacity="0.25"
     inkscape:showpageshadow="2"
     inkscape:pageopacity="0.0"
     inkscape:pagecheckerboard="0"
     inkscape:deskcolor="#d1d1d1"
     showgrid="false"
     inkscape:zoom="0.96875"
     inkscape:cx="541.41935"
     inkscape:cy="401.03226"
     inkscape:window-width="1920"
     inkscape:window-height="991"
     inkscape:window-x="-9"
     inkscape:window-y="-9"
     inkscape:window-maximized="1"
     inkscape:current-layer="g138" />
  <g
     inkscape:groupmode="layer"
     inkscape:label="Image"
     id="g138">
    <path
       style="fill:#000000"
       d="m 325.29032,747.90495 c -6.875,-2.13291 -13.625,-3.89573 -15,-3.91738 -4.21438,-0.0664 -12.47075,-4.55441 -15.79296,-8.58482 -1.73318,-2.10265 -3.83879,-5.84086 -4.67914,-8.30714 -1.77573,-5.21149 -1.99805,-16.89436 -0.42902,-22.54554 3.74167,-13.47644 16.70489,-21.42566 30.328,-18.59751 10.80261,2.24261 17.54617,9.98937 19.71732,22.65053 1.04352,6.08535 0.97677,8.039 -0.47577,13.92509 -2.0488,8.30234 -4.78799,12.59511 -10.46103,16.39421 -2.36093,1.58107 -3.93593,3.07096 -3.5,3.31087 0.43593,0.23992 3.7176,1.01711 7.2926,1.7271 3.575,0.70999 6.87787,1.62747 7.33972,2.03885 0.46184,0.41138 0.23684,1.88102 -0.5,3.26586 l -1.33972,2.5179 z m -2.92168,-12.21101 c 8.75827,-5.9022 12.09801,-18.03469 8.396,-30.50073 -5.19874,-17.50605 -25.89331,-18.58558 -33.07734,-1.72547 -3.49667,8.20627 -1.75113,23.0597 3.39116,28.85658 5.35308,6.03452 15.05675,7.57033 21.29018,3.36962 z m 38.42168,6.86216 c -3.87808,-1.72363 -6.96227,-5.11959 -9.17457,-10.10201 -1.46756,-3.30516 -1.83231,-7.62879 -2.13451,-25.30189 l -0.36449,-21.31554 3.83679,0.31554 3.83678,0.31554 0.5,21.5 c 0.52869,22.7336 0.81073,24.13276 5.62854,27.92245 3.19442,2.51273 10.10882,2.78185 14.40419,0.56062 5.76962,-2.98358 6.41597,-5.7641 6.7955,-29.23307 l 0.34364,-21.25 h 3.41407 3.41406 v 20.37427 c 0,26.21682 -1.40522,30.69478 -11.21016,35.72305 -4.40913,2.26113 -14.71684,2.52352 -19.28984,0.49104 z m 43.73443,-27.83836 0.26557,-28.25 15.25002,-0.27605 15.25,-0.27604 v 2.99431 2.99431 l -11.75,0.28173 -11.75002,0.28174 v 9 c 0,6.46667 0.35185,9.03519 1.25,9.125 0.6875,0.0688 5.77992,0.18125 11.31642,0.25 l 10.0664,0.125 -0.3164,2.75 -0.3164,2.75 -11.2985,0.2832 -11.29845,0.28321 0.17172,9.96679 0.17173,9.9668 h 12.3767 12.3768 v 3 3 h -16.0156 -16.01557 z m 41.76559,-0.27605 v -28.52604 l 15.25,0.27604 15.25,0.27605 0.3133,2.71772 0.3133,2.71771 -11.8133,0.28229 -11.8133,0.28228 v 9 c 0,6.46667 0.3518,9.03519 1.25,9.125 0.6875,0.0688 5.525,0.18125 10.75,0.25 l 9.5,0.125 v 3 3 h -11 -11 v 10 10 h 12.5 12.5 v 3 3 h -16 -16 z m 42,0.0261 v -28.5 l 3.75,0.003 3.75,0.003 11.1021,17.74708 c 6.1061,9.7609 12.5175,20.22209 14.2475,23.24709 l 3.1456,5.5 -0.2476,-23 -0.2476,-23 3.25,-0.31336 3.25,-0.31336 v 28.56336 28.56336 l -3.75,-0.035 -3.75,-0.035 -10,-16.0913 c -5.5,-8.85038 -11.9068,-19.52214 -14.2374,-23.71519 l -4.2374,-7.62373 -0.013,23.75 -0.013,23.75 h -3 -3 v -28.5 z m -216.01986,-65.25 -0.0199,-6.75 -5.07738,-3 c -9.92357,-5.86339 -14.7538,-13.7621 -12.78226,-20.90241 1.2784,-4.63002 7.62116,-10.71665 15.33572,-14.71646 l 6.40098,-3.31875 -3.51586,-3.89163 c -5.3566,-5.92911 -8.30197,-13.08529 -8.30197,-20.17075 0,-11.65045 7.38991,-22.04457 22.93301,-32.25591 20.87962,-13.71727 29.53592,-27.18164 24.56388,-38.20766 -3.36255,-7.45679 0.65798,-15.03902 10.12674,-19.0978 4.67399,-2.0035 6.84629,-5.13625 14.86593,-21.43863 8.69034,-17.66578 17.13437,-43.9467 21.43237,-66.7054 7.02754,-37.21216 6.8523,-78.50343 -0.50351,-118.6379 -3.43012,-18.71559 -2.58277,-17.15675 -9.32598,-17.15675 -7.1996,0 -15.16619,-3.80489 -19.56179,-9.34282 -2.67243,-3.36696 -3.05014,-4.62475 -3.05014,-10.15718 0,-5.55502 0.37057,-6.77648 3.08149,-10.15718 1.69482,-2.11355 4.73111,-4.74282 6.7473,-5.84282 3.04488,-1.66123 3.66626,-2.54461 3.66851,-5.2152 0.004,-4.36699 4.69115,-9.55111 10.20069,-11.28145 5.94181,-1.86611 6.72797,-2.77264 4.16905,-4.80734 -5.33254,-4.24014 -5.57089,-8.6398 -0.74525,-13.75647 l 3.6218,-3.84022 -0.50669,-13.54966 c -0.5368,-14.35523 -1.67032,-19.05965 -7.24583,-30.07214 -3.24281,-6.40505 -10.20165,-16.80383 -17.38409,-25.97752 -5.59759,-7.14946 -6.49785,-11.40967 -3.59663,-17.02002 3.73806,-7.228606 16.87143,-8.461406 28.61239,-2.685776 l 4.62275,2.274016 4.54386,-4.656076 c 4.83681,-4.956247 15.65529,-10.240029 23.55168,-11.502713 4.76221,-0.761508 4.93302,-1.405332 2.08243,-7.849551 -3.58296,-8.099886 -0.13516,-16.762887 8.47498,-21.294385 4.1422,-2.18003 15.06092,-2.18003 19.20308,0 8.6102,4.531498 12.058,13.194499 8.475,21.294385 -1.1421,2.581897 -2.0765,5.21926 -2.0765,5.860805 0,0.641546 2.4721,1.684979 5.4936,2.318739 7.867,1.65013 17.5949,6.584373 22.344,11.33352 l 4.0924,4.092326 6.768,-2.707636 c 11.8802,-4.75283 23.2851,-3.25845 26.7851,3.509636 3.158,6.10705 2.1503,9.5922 -5.7766,19.97739 -17.9059,23.45907 -22.7065,35.34975 -22.7065,56.24239 0,11.31554 0.092,11.82713 2.3989,13.33865 3.0143,1.97506 5.0018,6.63629 4.0749,9.55671 -0.3892,1.22641 -1.8584,3.29627 -3.2648,4.59968 -2.9328,2.71799 -2.4582,3.42079 3.593,5.32126 5.6261,1.76696 10.4404,7.12307 10.0184,11.14603 -0.2625,2.5022 0.2658,3.25878 3.5908,5.14224 2.1443,1.21461 5.2914,3.93765 6.9937,6.0512 2.7276,3.38656 3.0951,4.59253 3.0951,10.15718 0,5.53243 -0.3777,6.79022 -3.0502,10.15718 -4.4037,5.54817 -12.3605,9.34282 -19.5906,9.34282 h -5.7821 l -0.9924,3.75 c -1.8871,7.13073 -5.0749,27.47528 -6.6725,42.58361 -2.0023,18.93584 -1.4607,59.8916 0.9903,74.87887 5.8989,36.07042 15.5531,66.56191 28.5019,90.01894 5.0802,9.20287 6.1464,10.49887 10.274,12.4875 9.7352,4.6903 13.764,11.98451 10.4537,18.92626 -5.2321,10.97202 3.1556,24.55548 23.4101,37.91115 16.5895,10.93896 23.9382,21.05226 23.9382,32.94367 0,7.11264 -2.9482,14.24483 -8.3684,20.24437 l -3.5824,3.96524 4.088,1.84342 c 5.4602,2.46223 12.2339,7.35279 14.9284,10.77831 6.8484,8.70636 2.5749,19.11484 -11.0406,26.89012 l -3.99,2.27854 -0.01,6.75 -0.01,6.75 h -137.00002 -137 l -0.0198,-6.75 z m 268.01986,-4.2332 v -5.98316 l 5.0359,-2.55188 c 6.7872,-3.43932 12.6866,-8.94188 13.4852,-12.57807 0.729,-3.31915 -1.0019,-6.68318 -5.396,-10.48694 -2.9921,-2.59014 -15.4279,-8.95273 -19.492,-9.97274 -2.7103,-0.68026 -2.7078,-0.68489 3.3747,-6.18922 9.7988,-8.86746 13.2262,-17.49801 10.5732,-26.62427 -2.0898,-7.18852 -8.46,-14.15935 -20.0067,-21.89291 -21.0711,-14.11269 -30.6836,-28.3888 -27.5323,-40.88997 0.6027,-2.39123 1.3476,-5.3878 1.6552,-6.65905 0.7305,-3.0182 -3.7831,-7.83449 -8.7314,-9.31702 -1.9894,-0.59606 -4.2309,-2.04852 -4.981,-3.22768 -10.3826,-16.32198 -16.7346,-29.87546 -23.3479,-49.81788 -17.6563,-53.24239 -20.2417,-111.54998 -7.5636,-170.57606 l 2.2016,-10.25 h 5.4197 c 7.6543,0 13.4852,-1.69952 17.6723,-5.15093 9.8742,-8.13914 4.1586,-20.59624 -10.7316,-23.38967 l -3.7717,-0.70757 2.6605,-2.77704 c 1.4634,-1.52738 2.5066,-3.56135 2.3183,-4.51994 -0.5446,-2.77222 -5.2267,-5.63113 -10.1269,-6.18345 -4.0596,-0.45757 -4.5734,-0.81069 -5.1142,-3.51504 -0.3307,-1.6535 -0.6013,-4.49522 -0.6013,-6.31494 0,-2.86598 0.3679,-3.3509 2.75,-3.625 2.1823,-0.2511 2.75,-0.83252 2.75,-2.81642 0,-2.05445 -0.5431,-2.55315 -3.0471,-2.79823 l -3.0471,-0.29822 0.1197,-16.70178 c 0.1093,-15.25925 0.3504,-17.39273 2.7918,-24.70177 3.4975,-10.47119 9.1075,-20.39828 18.5724,-32.86417 9.678,-12.74676 9.2923,-12.06234 8.5237,-15.12475 -1.6768,-6.680976 -12.0282,-7.013196 -24.4134,-0.78353 -4.125,2.07485 -7.7777,3.90253 -8.1172,4.06151 -0.3395,0.15899 -0.8707,-0.96601 -1.1806,-2.5 -1.5211,-7.529336 -13.0139,-14.127106 -30.9522,-17.768868 -2.5177,-0.511139 -2.75,-0.944558 -2.75,-5.131513 0,-3.059022 0.6622,-5.415071 2,-7.115806 5.7161,-7.266841 -1.5352,-17.272871 -12.51756,-17.272871 -10.11936,0 -16.96686,10.300581 -11.48246,17.272871 1.3378,1.700735 2,4.056784 2,7.115806 0,4.186955 -0.23227,4.620374 -2.75,5.131513 -17.96778,3.647752 -29.4399,10.179322 -30.92548,17.607208 -0.31599,1.57993 -0.66407,2.8726 -0.77352,2.8726 -0.10945,0 -3.61228,-1.76629 -7.78405,-3.92509 -7.8521,-4.06328 -14.88599,-5.76382 -19.27958,-4.6611 -3.20425,0.80422 -6.48737,4.0358 -6.48737,6.38553 0,0.98963 3.79299,6.80932 8.42887,12.93264 10.17716,13.44255 15.68691,23.10012 19.26504,33.76802 2.4643,7.34711 2.68829,9.34579 2.74469,24.49018 l 0.0614,16.49018 -3,0.51964 c -2.39106,0.41416 -3,1.0251 -3,3.00982 0,1.97318 0.57094,2.55587 2.75,2.8066 2.9887,0.34389 3.34966,1.92471 2.12721,9.31613 -0.57038,3.44877 -0.82856,3.65822 -5.10323,4.14004 -4.89093,0.55127 -9.57218,3.41206 -10.11635,6.18226 -0.1883,0.95859 0.8549,2.99256 2.31821,4.51994 l 2.66058,2.77704 -3.7717,0.70757 c -10.7793,2.02221 -17.45114,9.26568 -15.33398,16.64777 2.11953,7.39037 10.45347,11.89283 22.01331,11.89283 h 5.68105 l 2.19878,10.25 c 8.22063,38.32204 10.15085,82.46477 5.08324,116.25 -5.33799,35.58778 -15.60716,68.48821 -28.71585,92 -6.73031,12.07149 -8.47017,14.23703 -12.37956,15.40831 -2.00032,0.59931 -4.86045,2.31316 -6.35585,3.80855 -2.8619,2.86191 -2.88041,3.22967 -0.61057,12.13083 3.16337,12.40512 -6.55922,26.85143 -27.5196,40.88997 -24.91064,16.68429 -27.72311,32.83588 -8.58783,49.31861 l 5.01826,4.32263 -7.02887,2.82401 c -12.89214,5.17971 -20.82725,11.92278 -20.82725,17.6985 0,3.16524 6.23339,9.41134 12.98166,13.00813 l 6.01834,3.20774 v 5.94136 5.94136 h 131 131.00002 z"
       id="path300" />
  </g>
</svg>
